# xmcd
#
# Track frame offsets:
# 150
# 20796
# 40547
# 66396
# 75883
# 85701
# 99399
# 116875
# 136504
#
# Disc length: 2020 seconds
#
#
# Revision: 0
# Processed by: cddbd v1.5.1PL0 Copyright (c) Steve Scherf et al.
# Submitted via: FreeRIP 2.53 
#
DISCID=6407e209
DTITLE=Dale Boyle and the Barnburners - A Dog Day For The Purists
DYEAR=2004
DGENRE=Blues
TTITLE0=Travelin' Bone
TTITLE1=Poor Boy Blues
TTITLE2=Alpine Valley Blues
TTITLE3=That's What She Said
TTITLE4=Voodoo Boogie
TTITLE5=Hound Dog
TTITLE6=When I Leave
TTITLE7=St. Mary's Last Waltz
TTITLE8=Justice Precluded Coffin
EXTD=BluesfestRadio.com
EXTT0=
EXTT1=
EXTT2=
EXTT3=
EXTT4=
EXTT5=
EXTT6=
EXTT7=
EXTT8=
PLAYORDER=
